<?xml version="1.0" encoding="UTF-8"?>
<svg id="Capa_2" data-name="Capa 2" xmlns="http://www.w3.org/2000/svg" xmlns:xlink="http://www.w3.org/1999/xlink" viewBox="0 0 254.82 298.86">
  <defs>
    <style>
      .cls-1 {
        fill: url(#Degradado_sin_nombre_141-2);
      }

      .cls-1, .cls-2, .cls-3, .cls-4 {
        stroke-width: 0px;
      }

      .cls-2 {
        fill: url(#Degradado_sin_nombre_141);
      }

      .cls-3 {
        fill: none;
      }

      .cls-4 {
        fill: url(#Degradado_sin_nombre_141-3);
      }
    </style>
    <linearGradient id="Degradado_sin_nombre_141" data-name="Degradado sin nombre 141" x1="57.31" y1="225.25" x2="254.82" y2="225.25" gradientUnits="userSpaceOnUse">
      <stop offset="0" stop-color="#6c9370"/>
      <stop offset="1" stop-color="#a7bea9"/>
    </linearGradient>
    <linearGradient id="Degradado_sin_nombre_141-2" data-name="Degradado sin nombre 141" x1="0" y1="194.02" x2="56.9" y2="194.02" xlink:href="#Degradado_sin_nombre_141"/>
    <linearGradient id="Degradado_sin_nombre_141-3" data-name="Degradado sin nombre 141" x1="14.73" y1="38.5" x2="154.74" y2="38.5" xlink:href="#Degradado_sin_nombre_141"/>
  </defs>
  <g id="Layer_1" data-name="Layer 1">
    <path class="cls-2" d="M118.63,153.26v34.56c23.3-12.23,45.39-23.83,68.92-36.19v36.29c23.1-12.41,44.61-23.97,67.28-36.15v147.08H62.24c-.73-15.69-1.49-31.32-2.18-46.94-.9-20.17-1.61-40.36-2.71-60.52-.28-5.08,1.09-7.93,5.92-10.32,16.22-8,32.13-16.64,48.19-24.97,2.02-1.05,4.25-1.71,7.16-2.85ZM76.28,217.55v18.04h40.4v-18.04h-40.4ZM178.9,217.81h-40.37v17.68h40.37v-17.68ZM240.21,235.46v-17.65h-40.51v17.65h40.51Z"/>
    <path class="cls-1" d="M9.39,89.37h37.94c3.18,69.53,6.35,139.03,9.56,209.3H0c3.11-69.29,6.23-138.8,9.39-209.3Z"/>
    <path class="cls-4" d="M90.13,57.31c-5.97,5.53-15.5,9.1-26.42,8.12-5.1-.46-8.62.61-12.24,4.78-6.3,7.25-17.69,8.62-26.3,4.41-7.9-3.86-11.16-10.28-10.31-18.92.82-8.42,7.09-14.34,16.8-17.34,2.94-.91,6.2-3.78,7.47-6.58,5.61-12.44,22.41-21.78,36.14-18.74,4.87,1.08,7.94.38,11.77-3.03,13.53-12.03,38.23-13.3,53.36-3.4,10.78,7.05,16.12,18.51,13.82,29.65-2.44,11.81-13.78,22.86-27.14,23.6-11.29.62-22.73-1.45-36.94-2.56Z"/>
    <path class="cls-3" d="M76.28,217.55h40.4v18.04h-40.4v-18.04Z"/>
    <path class="cls-3" d="M178.9,217.81v17.68h-40.37v-17.68h40.37Z"/>
    <path class="cls-3" d="M240.21,235.46h-40.51v-17.65h40.51v17.65Z"/>
  </g>
</svg>