<?xml version="1.0" encoding="UTF-8"?>
<svg id="Capa_2" data-name="Capa 2" xmlns="http://www.w3.org/2000/svg" xmlns:xlink="http://www.w3.org/1999/xlink" viewBox="0 0 265.93 256.79">
  <defs>
    <style>
      .cls-1 {
        fill: url(#Degradado_sin_nombre_141-2);
      }

      .cls-1, .cls-2, .cls-3, .cls-4 {
        stroke-width: 0px;
      }

      .cls-2 {
        fill: url(#Degradado_sin_nombre_141);
      }

      .cls-3 {
        fill: url(#Degradado_sin_nombre_141-3);
      }

      .cls-4 {
        fill: #faf9fc;
      }
    </style>
    <linearGradient id="Degradado_sin_nombre_141" data-name="Degradado sin nombre 141" x1="30.4" y1="128.4" x2="238.46" y2="128.4" gradientUnits="userSpaceOnUse">
      <stop offset="0" stop-color="#6c9370"/>
      <stop offset="1" stop-color="#a7bea9"/>
    </linearGradient>
    <linearGradient id="Degradado_sin_nombre_141-2" data-name="Degradado sin nombre 141" x1="86.65" y1="231.48" x2="265.93" y2="231.48" xlink:href="#Degradado_sin_nombre_141"/>
    <linearGradient id="Degradado_sin_nombre_141-3" data-name="Degradado sin nombre 141" x1="0" y1="25.35" x2="55.14" y2="25.35" xlink:href="#Degradado_sin_nombre_141"/>
  </defs>
  <g id="Layer_1" data-name="Layer 1">
    <g>
      <path class="cls-2" d="M86.65,256.63c-16.17,1.57-27.63-8.74-30.6-20.25-.67-2.6-1-5.2-1-7.89.02-59.33.02-118.66.02-177.99-.98-1.12-.78-2.5-.78-3.82-.02-5.9,0-11.81-.01-17.71-.05-14.01-8-24.08-21.62-27.46-.86-.21-2-.06-2.24-1.34.86-.03,1.71-.09,2.57-.09C91.88.09,150.79.22,209.7,0c16.06-.06,28.82,12.68,28.76,28.67-.2,57.95-.08,115.9-.08,173.85,0,1.24.04,2.48.06,3.72-1.43,1.37-3.24.92-4.9.92-32.71.03-65.43.02-98.14.02-6.96,0-13.92-.03-20.89.01-3.29.02-3.55.28-3.57,3.63-.04,6.2.19,12.41-.06,18.59-.47,11.68-5.99,20.22-16.49,25.5-2.46,1.24-5.14,1.28-7.75,1.71Z"/>
      <path class="cls-1" d="M86.65,256.63c6.07-1.54,11.59-3.95,15.98-8.71,4.74-5.16,7.19-11.17,7.39-18.06.19-6.86.19-13.74-.03-20.61-.09-2.82,1.13-2.99,3.37-2.99,40.46.05,80.92.04,121.37.03,1.24,0,2.48-.04,3.72-.06,8.3.02,16.59.1,24.89.02,1.93-.02,2.64.39,2.6,2.48-.14,7.15.06,14.31-.09,21.46-.29,14.14-12.27,26.41-26.41,26.44-50.74.13-101.47.04-152.21.04-.19,0-.38-.03-.57-.04Z"/>
      <path class="cls-3" d="M30.4.18c4.22,1,8.42,1.99,12.12,4.48,8.21,5.51,12.14,13.38,12.49,23.03.27,7.6.05,15.21.05,22.82-17.35,0-34.71-.06-52.06.04-2.36.01-3.07-.56-3-2.96.18-6.1.06-12.2.06-18.3C.07,11.3,12.47-.6,30.4.18Z"/>
      <path class="cls-4" d="M160.47,27.58c-17.26,0-34.53-.04-51.79.05-2.35.01-3.37-.35-3.28-3.06.2-6.15.04-6.15,6.14-6.15,33.48,0,66.95.03,100.43-.06,2.6,0,3.69.41,3.57,3.35-.25,5.86-.06,5.87-5.86,5.87-16.4,0-32.81,0-49.21,0Z"/>
      <path class="cls-4" d="M160.62,110.07c17.17,0,34.34.04,51.5-.05,2.45-.01,3.52.39,3.42,3.21-.22,6-.05,6-6.01,6-33.57,0-67.15-.04-100.72.07-2.84,0-3.5-.81-3.41-3.51.2-5.71.06-5.72,5.71-5.72h49.5Z"/>
      <path class="cls-4" d="M133,192.56c-17.36,0-34.72-.05-52.08.05-2.4.01-3.06-.67-3.01-3.03.13-6.18.02-6.19,6.09-6.19,33.57,0,67.15.03,100.72-.06,2.65,0,3.38.72,3.3,3.33-.18,5.9-.05,5.9-5.81,5.9h-49.21Z"/>
      <path class="cls-4" d="M123.81,45.91c-14.21,0-28.42-.05-42.62.05-2.35.02-3.36-.36-3.28-3.06.2-6.15.04-6.15,6.14-6.15,27.46,0,54.93.04,82.39-.07,2.71-.01,3.33.82,3.26,3.36-.17,5.87-.04,5.87-5.84,5.87-13.35,0-26.7,0-40.05,0Z"/>
      <path class="cls-4" d="M169.62,174.23c-14.21,0-28.42-.05-42.62.05-2.38.02-3.34-.4-3.26-3.08.19-6.13.04-6.14,6.15-6.14,27.37,0,54.74.04,82.1-.06,2.64,0,3.66.48,3.55,3.37-.23,5.84-.06,5.85-5.87,5.85h-40.05Z"/>
      <path class="cls-4" d="M141.96,82.57c-11.25,0-22.5-.05-33.75.04-2.06.02-2.82-.43-2.79-2.66.06-6.55-.04-6.55,6.58-6.55,21.16,0,42.33.04,63.49-.05,2.51-.01,3.48.49,3.38,3.24-.21,5.97-.05,5.97-6.03,5.97-10.3,0-20.59,0-30.89,0Z"/>
      <path class="cls-4" d="M181.18,128.4c10.58,0,21.16.05,31.74-.04,1.98-.02,2.6.54,2.6,2.56,0,6.64.08,6.64-6.48,6.64-19.73,0-39.46-.05-59.2.06-2.5.01-3.26-.59-3.18-3.15.18-6.07.04-6.07,6.21-6.07,9.44,0,18.87,0,28.31,0Z"/>
      <path class="cls-4" d="M107.8,137.57c-9.05,0-18.11-.07-27.16.05-2.16.03-2.74-.61-2.72-2.74.06-6.48-.03-6.48,6.36-6.48,16.77,0,33.55.05,50.32-.05,2.4-.01,3.06.66,3.01,3.03-.13,6.19-.02,6.19-6.08,6.19-7.91,0-15.82,0-23.73,0Z"/>
      <path class="cls-4" d="M153.32,64.24c-7.43,0-14.86-.05-22.29.03-1.86.02-2.69-.32-2.69-2.46-.01-6.74-.11-6.74,6.67-6.74,13.62,0,27.25.06,40.87-.06,2.43-.02,3.03.72,2.98,3.06-.13,6.16-.02,6.17-6.1,6.17-6.48,0-12.96,0-19.44,0Z"/>
      <path class="cls-4" d="M98.41,64.24c-6,0-12-.06-18,.04-1.81.03-2.47-.44-2.49-2.37-.07-6.83-.15-6.83,6.57-6.83,10.67,0,21.33.05,32-.04,2.07-.02,2.8.45,2.78,2.67-.06,6.54.04,6.54-6.58,6.54-4.76,0-9.52,0-14.29,0Z"/>
      <path class="cls-4" d="M197.16,36.75c5.33,0,10.66.05,15.99-.03,1.66-.02,2.32.38,2.36,2.21.16,6.99.23,6.99-6.69,6.99-9.14,0-18.28-.05-27.42.04-1.91.02-2.65-.41-2.65-2.5,0-6.7-.09-6.7,6.7-6.7,3.9,0,7.81,0,11.71,0Z"/>
      <path class="cls-4" d="M96.17,174.23c-5.33,0-10.66-.04-16,.02-1.51.02-2.17-.32-2.24-2.03-.3-7.16-.36-7.16,6.8-7.16,9.05,0,18.09.05,27.13-.04,2.01-.02,2.85.34,2.83,2.62-.06,6.58.05,6.59-6.53,6.59-4,0-8,0-12,0Z"/>
      <path class="cls-4" d="M87.14,18.42c2.47,0,4.98-.29,7.4.07,3.57.52,1.39,3.46,1.63,5.24.17,1.23,1.44,3.78-1.62,3.83-4.94.08-9.91.32-14.82-.08-3.57-.28-1.38-3.43-1.63-5.21-.17-1.23-1.44-3.73,1.62-3.83,2.47-.08,4.94-.02,7.41-.02Z"/>
      <path class="cls-4" d="M86.87,82.57c-2.38,0-4.75,0-7.13,0-2.94-.02-1.9-2.43-1.64-3.54.45-1.87-2.09-5.17,1.63-5.51,4.9-.45,9.87-.12,14.81-.11,2.94,0,1.9,2.43,1.64,3.54-.45,1.87,2.09,4.94-1.63,5.54-2.5.4-5.12.08-7.68.08Z"/>
      <path class="cls-4" d="M87.02,119.23c-2.28,0-4.56-.06-6.84.02-1.49.05-2.17-.3-2.25-2.02-.3-7.17-.36-7.17,6.77-7.17,3.23,0,6.46.08,9.69-.02,2.69-.09,2.14,1.95,1.83,3.13-.54,2.02,2.12,5.26-1.8,5.97-2.39.43-4.93.08-7.4.08Z"/>
      <path class="cls-4" d="M206.56,192.55c-2.57,0-5.2.37-7.68-.09-3.78-.7-1.1-3.86-1.64-5.82-.3-1.08-1.05-3.27,1.67-3.25,4.94.03,9.92-.38,14.81.13,3.79.4,1.1,3.82,1.64,5.79.3,1.08,1.05,3.29-1.67,3.25-2.38-.03-4.75,0-7.13,0Z"/>
    </g>
  </g>
</svg>