<?xml version="1.0" encoding="UTF-8"?>
<svg id="Capa_1" data-name="Capa 1" xmlns="http://www.w3.org/2000/svg" viewBox="0 0 320 320">
  <defs>
    <style>
      .cls-1 {
        fill: #fff100;
      }

      .cls-1, .cls-2, .cls-3, .cls-4 {
        stroke-width: 0px;
      }

      .cls-1, .cls-2, .cls-4 {
        fill-rule: evenodd;
      }

      .cls-2 {
        fill: #ec1c24;
      }

      .cls-3, .cls-4 {
        fill: #006436;
      }
    </style>
  </defs>
  <path class="cls-2" d="M160,34.83c88.37,0,160,56.04,160,125.17s-71.63,125.17-160,125.17S0,229.13,0,160,71.63,34.83,160,34.83"/>
  <path class="cls-1" d="M160,43.32c82.37,0,149.15,52.24,149.15,116.68s-66.78,116.68-149.15,116.68S10.85,224.44,10.85,160,77.63,43.32,160,43.32"/>
  <path class="cls-4" d="M140.17,75.28c-3.93-.21-8.43,1.17-13.35,5.43-17.52,15.17-15.59,49.46-15.59,49.46,0,0,1.49-16.78,9.5-25.82,8.02-9.05,19.15-16.49,32.07-9.34,13.03,7.47,3.27-18.87-12.63-19.73M76.52,75.28c3.93-.21,8.43,1.17,13.35,5.43,17.52,15.17,15.59,49.46,15.59,49.46,0,0-1.48-16.78-9.5-25.82-8.02-9.05-19.15-16.49-32.07-9.34-13.03,7.47-3.27-18.87,12.63-19.73ZM182.66,75.28c3.93-.21,8.43,1.17,13.35,5.43,17.52,15.17,15.59,49.46,15.59,49.46,0,0-1.48-16.78-9.5-25.82-8.02-9.05-19.15-16.49-32.07-9.34-13.03,7.47-3.27-18.87,12.63-19.73ZM246.31,75.28c-3.93-.21-8.43,1.17-13.35,5.43-17.52,15.17-15.59,49.46-15.59,49.46,0,0,1.49-16.78,9.5-25.82,8.02-9.05,19.15-16.49,32.07-9.34,13.03,7.47,3.27-18.87-12.63-19.73Z"/>
  <g>
    <path class="cls-3" d="M252.84,136.19h-78.23v5.75h14.97l-14.74,134.13-.02.22.22-.02c1.71-.13,3.53-.3,5.55-.52l.15-.02,3.51-31.91,27.96,22.58v3.11l.24-.07c1.24-.36,2.49-.75,3.83-1.17l.13-.04v-2.62l28.2-24.55,1.6,14.38.24-.13c1.68-.94,3.37-1.92,5.16-3.01l.1-.06-12.24-110.3h13.4v-5.75ZM207.05,207.56c0,.5.06.99.19,1.47l-20.98,16.39,3.73-33.9,17.55,13.71c-.32.74-.49,1.52-.49,2.33ZM185.36,233.64l26.11-20.39c.24.06.48.11.73.15v45.49l-27.2-21.97.36-3.27ZM212.2,150.92c-.94.13-1.84.48-2.62,1.02l-14.21-9.37.07-.64h16.76v8.98ZM190.75,184.6l1.29-11.79,17.2-11.5c.85.68,1.86,1.12,2.95,1.27v38.76l-21.45-16.75ZM192.58,167.9l2.35-21.41,12.45,8.32c-.23.63-.34,1.29-.34,1.96,0,.5.06,1,.19,1.48l-14.65,9.66ZM216.39,151.26v-9.32h15.57l-14.74,9.72c-.27-.15-.55-.29-.84-.4ZM216.39,213.05c.25-.1.5-.21.74-.34l26.63,20.8.07.67-27.44,23.88v-45.02ZM216.39,201.89v-39.64c.42-.16.83-.37,1.21-.63l19.64,13.12,1.11,10-21.95,17.15ZM220.11,206.49l19-14.84,3.73,33.64-22.63-17.68v-.05c0-.36-.03-.72-.1-1.07ZM219.87,158.73c.23-.63.34-1.29.34-1.97,0-.84-.18-1.65-.52-2.41l14.23-9.51,2.77,24.97-16.82-11.09Z"/>
    <path class="cls-3" d="M66.49,141.94h13.4l-12.19,109.81v.11s.08.06.08.06c1.61.99,3.3,1.98,5.16,3.03l.24.14,1.56-14.02,28.2,24.55v2.41l.13.04c1.22.39,2.51.79,3.83,1.19l.24.07v-2.91l27.96-22.58,3.5,31.84.15.02c1.98.22,3.8.4,5.55.54l.22.02-14.76-134.29h14.97v-5.75h-78.22v5.75ZM102.95,213.05v45.02l-27.44-23.88.07-.67,26.63-20.8c.24.13.48.24.74.34ZM102.95,151.26c-.29.11-.57.24-.84.4l-14.74-9.72h15.57v9.32ZM81,184.74l1.11-10,19.64-13.12c.38.26.79.47,1.21.63v39.64l-21.95-17.15ZM82.65,169.81l2.77-24.97,14.23,9.51c-.35.76-.52,1.57-.52,2.41,0,.68.12,1.34.34,1.97l-16.82,11.09ZM99.13,207.61l-22.63,17.68,3.73-33.64,19,14.84c-.07.35-.1.71-.1,1.07v.05ZM110.97,155.45l13.42-8.97,2.35,21.41-15.68-10.34c.04-.26.06-.53.06-.8,0-.44-.05-.88-.15-1.3ZM107.14,162.31c.86-.3,1.64-.79,2.28-1.44l17.87,11.94,1.29,11.79-21.45,16.75v-39.04ZM109.12,152.36c-.58-.51-1.25-.9-1.98-1.16v-9.26h16.76l.07.64-14.84,9.78ZM111.08,208.24c.03-.23.04-.46.04-.68,0-.55-.08-1.1-.23-1.62l18.46-14.42,3.73,33.9-21.99-17.18ZM107.14,213.11c.12-.04.25-.09.37-.15l26.46,20.67.36,3.27-27.2,21.97v-45.77Z"/>
  </g>
</svg>