<?xml version="1.0" encoding="UTF-8"?>
<svg id="Capa_2" data-name="Capa 2" xmlns="http://www.w3.org/2000/svg" viewBox="0 0 1319.12 467.98">
  <defs>
    <style>
      .cls-1 {
        fill: #fff100;
      }

      .cls-1, .cls-2, .cls-3, .cls-4, .cls-5, .cls-6 {
        stroke-width: 0px;
      }

      .cls-1, .cls-4, .cls-6 {
        fill-rule: evenodd;
      }

      .cls-2 {
        fill: #113476;
      }

      .cls-3, .cls-4 {
        fill: #ec1c24;
      }

      .cls-5, .cls-6 {
        fill: #006436;
      }
    </style>
  </defs>
  <g id="Capa_1-2" data-name="Capa 1">
    <g>
      <path class="cls-4" d="M293.92,0c162.33,0,293.92,104.76,293.92,233.99s-131.59,233.99-293.92,233.99S0,363.22,0,233.99,131.59,0,293.92,0"/>
      <path class="cls-1" d="M293.92,15.87c151.32,0,273.99,97.66,273.99,218.12s-122.67,218.12-273.99,218.12S19.94,354.45,19.94,233.99,142.6,15.87,293.92,15.87"/>
      <path class="cls-6" d="M257.5,75.61c-7.21-.4-15.48,2.19-24.52,10.16-32.18,28.36-28.64,92.46-28.64,92.46,0,0,2.73-31.36,17.46-48.27,14.73-16.91,35.18-30.82,58.91-17.45,23.93,13.96,6-35.27-23.21-36.89M140.57,75.61c7.21-.4,15.48,2.19,24.52,10.16,32.18,28.36,28.64,92.46,28.64,92.46,0,0-2.73-31.36-17.45-48.27-14.73-16.91-35.18-30.82-58.91-17.45-23.93,13.96-6-35.27,23.21-36.89ZM335.55,75.61c7.21-.4,15.48,2.19,24.52,10.16,32.18,28.36,28.64,92.46,28.64,92.46,0,0-2.73-31.36-17.45-48.27-14.73-16.91-35.18-30.82-58.91-17.45-23.93,13.96-6-35.27,23.21-36.89ZM452.48,75.61c-7.21-.4-15.48,2.19-24.52,10.16-32.18,28.36-28.64,92.46-28.64,92.46,0,0,2.73-31.36,17.46-48.27,14.73-16.91,35.18-30.82,58.91-17.45,23.93,13.96,6-35.27-23.21-36.89Z"/>
      <g>
        <path class="cls-5" d="M464.47,189.48h-143.7v10.75h27.49l-27.08,250.74-.04.4.4-.03c3.14-.25,6.48-.57,10.2-.98l.27-.03,6.44-59.66,51.35,42.22v5.81l.43-.13c2.28-.68,4.58-1.39,7.03-2.19l.23-.08v-4.9l51.81-45.89,2.93,26.88.44-.25c3.09-1.75,6.19-3.59,9.48-5.63l.18-.11-22.49-206.19h24.61v-10.75ZM380.35,322.9c0,.93.12,1.85.35,2.75l-38.53,30.63,6.84-63.37,32.23,25.63c-.6,1.38-.9,2.85-.9,4.36ZM340.51,371.65l47.96-38.12c.44.12.89.21,1.34.28v85.04l-49.96-41.07.66-6.11ZM389.81,217.02c-1.73.25-3.38.9-4.81,1.91l-26.11-17.51.13-1.19h30.79v16.79ZM350.41,279.98l2.38-22.03,31.6-21.49c1.56,1.28,3.42,2.1,5.42,2.38v72.46l-39.4-31.32ZM353.78,248.75l4.32-40.03,22.87,15.55c-.41,1.18-.62,2.41-.62,3.66,0,.93.12,1.86.35,2.77l-26.92,18.06ZM397.5,217.66v-17.42h28.61l-27.08,18.16c-.49-.29-1.01-.53-1.53-.74ZM397.5,333.17c.47-.18.92-.39,1.35-.63l48.92,38.89.14,1.26-50.41,44.65v-84.16ZM397.5,312.29v-74.1c.78-.3,1.53-.7,2.22-1.17l36.07,24.53,2.04,18.69-40.33,32.06ZM404.35,320.9l34.9-27.74,6.86,62.88-41.58-33.05v-.1c0-.67-.06-1.34-.18-2ZM403.9,231.61c.42-1.18.63-2.42.63-3.68,0-1.57-.32-3.09-.96-4.51l26.14-17.77,5.09,46.69-30.9-20.72Z"/>
        <path class="cls-5" d="M122.15,200.23h24.61l-22.39,205.28-.02.21.18.11c2.97,1.86,6.07,3.71,9.47,5.66l.44.25,2.86-26.22,51.81,45.89v4.5l.23.08c2.24.74,4.61,1.48,7.03,2.22l.43.13v-5.45l51.35-42.22,6.43,59.52.27.03c3.64.41,6.97.74,10.2,1.01l.41.03-27.12-251.04h27.49v-10.75H122.15v10.75ZM189.12,333.17v84.16l-50.41-44.65.14-1.26,48.92-38.89c.43.24.89.45,1.35.63ZM189.12,217.66c-.53.2-1.04.45-1.53.74l-27.08-18.16h28.61v17.42ZM148.79,280.24l2.04-18.69,36.07-24.53c.7.48,1.44.87,2.22,1.17v74.1l-40.33-32.06ZM151.83,252.33l5.09-46.69,26.13,17.77c-.64,1.42-.96,2.93-.96,4.51,0,1.27.21,2.5.63,3.68l-30.9,20.72ZM182.1,322.99l-41.58,33.05,6.86-62.88,34.9,27.74c-.12.65-.18,1.32-.18,2v.09ZM203.86,225.49l24.66-16.76,4.33,40.03-28.81-19.33c.07-.49.1-1,.1-1.5,0-.82-.09-1.64-.27-2.44ZM196.81,238.31c1.57-.56,3.01-1.49,4.19-2.69l32.83,22.32,2.38,22.03-39.4,31.32v-72.99ZM200.46,219.71c-1.07-.96-2.3-1.69-3.65-2.17v-17.31h30.79l.13,1.19-27.27,18.29ZM204.06,324.17c.05-.43.07-.85.07-1.27,0-1.03-.14-2.05-.42-3.04l33.9-26.95,6.84,63.37-40.4-32.11ZM196.81,333.28c.23-.08.46-.17.69-.27l48.61,38.65.66,6.11-49.96,41.07v-85.56Z"/>
      </g>
      <path class="cls-2" d="M1023.15,192.39l11.86-101.02h28.35l-2.16,18.39c2.89-7.29,6.45-12.62,10.65-15.98,4.21-3.39,9.5-5.07,15.85-5.07h2.77l-4.7,40.05c-1.12-.13-2.2-.25-3.23-.35-1.03-.1-2.02-.13-2.97-.13-6.21,0-10.98,1.84-14.32,5.49-3.34,3.65-5.47,9.39-6.38,17.19l-4.86,41.44h-30.84ZM982.55,162.52h29.39c-3.43,11-9.08,19.34-16.95,24.99-7.89,5.68-17.75,8.5-29.58,8.5-13.24,0-23.2-4.82-29.85-14.46-6.66-9.61-9.04-22.57-7.13-38.87,1.99-16.96,7.54-30.38,16.65-40.21,9.1-9.8,20.5-14.71,34.17-14.71s23.84,5.36,30.36,16.05c6.53,10.68,8.69,25.52,6.46,44.52l-.28,2.41-57.62.09c-.61,6.41.12,11.35,2.16,14.84,2.07,3.49,5.3,5.23,9.71,5.23,2.98,0,5.57-.73,7.72-2.16,2.16-1.46,3.76-3.52,4.78-6.22ZM960.55,130.56h27.35c.4-6.28-.36-11-2.32-14.14-1.96-3.14-5.1-4.69-9.46-4.69-4.02,0-7.42,1.65-10.14,4.98-2.74,3.33-4.55,7.96-5.43,13.86ZM817.44,192.39l-13.6-101.02h30.43l4.21,61.61,19.19-61.61h25.9l4.69,61.61,18.75-61.61h29.22l-36.16,101.02h-30.14l-4.26-58.47-18.09,58.47h-30.14ZM704.93,141.75c1.96-16.74,7.39-29.93,16.28-39.54,8.92-9.64,20.15-14.46,33.75-14.46s23.68,4.82,30.28,14.46c6.61,9.61,8.94,22.8,6.97,39.54-1.98,16.84-7.41,30.09-16.31,39.76-8.92,9.67-20.13,14.49-33.66,14.49s-23.66-4.82-30.3-14.49c-6.65-9.67-9-22.93-7.02-39.76ZM735.92,141.75c-1.1,9.35-.89,16.08.59,20.17,1.48,4.09,4.47,6.12,8.98,6.12s8-2.06,10.5-6.18c2.5-4.12,4.3-10.81,5.39-20.1,1.09-9.26.84-15.89-.69-19.94-1.54-4.06-4.55-6.09-9.06-6.09s-7.97,2-10.41,6.02c-2.44,4.03-4.22,10.72-5.31,20.01ZM641.32,192.39l11.84-100.83h-30.11l4.22-35.96h93.84l-4.22,35.96h-30.12l-11.84,100.83h-33.61Z"/>
      <path class="cls-6" d="M1046.72,228.91c4.46-25.19,24.77-51.97,78.85-72.65-58.12-75.33,17.4-140.19,74.94-114.93,21,9.22,27.17,31.51,6.79,48.98,0,0-18.04-49.6-52.98-36.64-34.95,12.96-37.2,73.27,7.33,90.74v17.47c-100.05-.84-94.49,117.65-36.64,141.47,28.75,11.84,104.27,18.6,99.2-92.44,0,0-93.56-20.86-61.44,41.71l-13.53,11.27s-21.42-33.82,4.51-59.18c25.93-25.36,55.24-23.67,80.6-20.85,25.36,2.82,68.2-1.69,71.02-32.13,2.82-30.44-28.74-32.13-41.15-30.44v-14.65s62.56-26.49,54.11,43.96c-8.45,70.46-72.14,58.05-72.14,58.05,0,0,11.84,68.77-47.91,107.09-69.79,44.77-165.34-8.97-151.56-86.85"/>
      <path class="cls-3" d="M1077.21,408.61v-11.93h11.93v11.93h-11.93ZM1047.59,383.88l-8.66-23.08-8.42,23.08h17.08ZM1070.66,408.61h-13.6l-5.38-14.19h-25.01l-5.18,14.19h-13.35l24.21-62.35h13.34l24.97,62.35ZM990.13,408.61v-11.93h11.93v11.93h-11.93ZM928.92,388.41l12.28-1.22c.74,4.11,2.22,7.11,4.47,9.04,2.25,1.93,5.28,2.89,9.1,2.89,4.03,0,7.08-.86,9.13-2.57,2.05-1.71,3.08-3.71,3.08-6.01,0-1.48-.44-2.73-1.29-3.77-.86-1.03-2.37-1.93-4.51-2.68-1.47-.52-4.8-1.42-10.03-2.73-6.72-1.68-11.43-3.74-14.15-6.2-3.82-3.44-5.72-7.63-5.72-12.58,0-3.18.9-6.17,2.69-8.94,1.8-2.77,4.38-4.88,7.76-6.33,3.38-1.45,7.44-2.18,12.23-2.18,7.79,0,13.67,1.73,17.6,5.2,3.95,3.47,6.01,8.08,6.21,13.87l-12.63.44c-.54-3.22-1.68-5.53-3.44-6.94-1.76-1.41-4.4-2.12-7.91-2.12s-6.47.76-8.52,2.26c-1.32.97-1.99,2.27-1.99,3.89,0,1.48.62,2.74,1.87,3.79,1.58,1.35,5.43,2.74,11.54,4.19,6.11,1.44,10.63,2.95,13.54,4.48,2.93,1.55,5.22,3.66,6.88,6.34,1.66,2.69,2.48,6,2.48,9.93,0,3.57-.99,6.92-2.97,10.04-1.99,3.12-4.79,5.44-8.42,6.95-3.63,1.52-8.16,2.28-13.57,2.28-7.88,0-13.93-1.82-18.15-5.46-4.22-3.63-6.73-8.93-7.56-15.88Z"/>
      <path class="cls-3" d="M1003.3,334.74l12.83-101.02h28.35l-2.34,18.39c2.96-7.29,6.57-12.62,10.81-15.98,4.24-3.39,9.54-5.07,15.9-5.07h2.76l-5.09,40.05c-1.12-.13-2.2-.25-3.23-.35-1.03-.1-2.02-.13-2.97-.13-6.21,0-11,1.84-14.37,5.49-3.37,3.65-5.56,9.39-6.55,17.19l-5.26,41.44h-30.84ZM962.99,304.87h29.39c-3.53,11-9.27,19.34-17.19,24.99-7.95,5.68-17.84,8.5-29.67,8.5-13.24,0-23.15-4.82-29.71-14.46-6.56-9.6-8.82-22.57-6.75-38.87,2.16-16.96,7.84-30.38,17.04-40.21,9.2-9.8,20.63-14.71,34.31-14.71s23.78,5.36,30.21,16.04c6.42,10.68,8.45,25.52,6.03,44.52l-.31,2.41-57.63.09c-.67,6.4.01,11.35,2.02,14.84,2.03,3.49,5.25,5.23,9.66,5.23,2.98,0,5.57-.73,7.74-2.15,2.17-1.46,3.79-3.52,4.84-6.22ZM941.29,272.91h27.35c.46-6.28-.25-11-2.18-14.14-1.93-3.14-5.05-4.69-9.42-4.69-4.03,0-7.44,1.65-10.18,4.98-2.78,3.33-4.62,7.96-5.57,13.86ZM797.58,334.74l-12.63-101.02h30.43l3.62,61.61,19.78-61.61h25.9l4.1,61.61,19.35-61.61h29.22l-37.13,101.02h-30.14l-3.7-58.47-18.65,58.47h-30.14ZM685.57,284.1c2.13-16.74,7.68-29.93,16.66-39.54,9.01-9.64,20.29-14.46,33.89-14.46s23.63,4.82,30.14,14.46c6.52,9.61,8.72,22.8,6.59,39.54-2.14,16.84-7.7,30.09-16.69,39.76-9.01,9.67-20.27,14.49-33.8,14.49s-23.61-4.82-30.16-14.49c-6.56-9.67-8.78-22.93-6.64-39.76ZM716.55,284.1c-1.19,9.35-1.05,16.08.4,20.16,1.44,4.09,4.41,6.12,8.92,6.12s8.02-2.06,10.56-6.18c2.54-4.12,4.41-10.81,5.59-20.1,1.18-9.26,1-15.89-.5-19.95-1.5-4.06-4.49-6.09-9-6.09s-7.99,2-10.47,6.02c-2.48,4.03-4.32,10.72-5.5,20.01ZM621.47,334.74l12.81-100.83h-30.11l4.57-35.96h93.84l-4.57,35.96h-30.12l-12.81,100.83h-33.61Z"/>
    </g>
  </g>
</svg>