<?xml version="1.0" encoding="UTF-8"?>
<svg id="Capa_2" data-name="Capa 2" xmlns="http://www.w3.org/2000/svg" xmlns:xlink="http://www.w3.org/1999/xlink" viewBox="0 0 366.3 212.62">
  <defs>
    <style>
      .cls-1 {
        fill: url(#Degradado_sin_nombre_141-2);
      }

      .cls-1, .cls-2, .cls-3, .cls-4, .cls-5, .cls-6, .cls-7, .cls-8 {
        stroke-width: 0px;
      }

      .cls-2 {
        fill: url(#Degradado_sin_nombre_141);
      }

      .cls-3 {
        fill: url(#Degradado_sin_nombre_141-3);
      }

      .cls-4 {
        fill: url(#Degradado_sin_nombre_141-5);
      }

      .cls-5 {
        fill: url(#Degradado_sin_nombre_141-4);
      }

      .cls-6 {
        fill: url(#Degradado_sin_nombre_141-8);
      }

      .cls-7 {
        fill: url(#Degradado_sin_nombre_141-6);
      }

      .cls-8 {
        fill: url(#Degradado_sin_nombre_141-7);
      }
    </style>
    <linearGradient id="Degradado_sin_nombre_141" data-name="Degradado sin nombre 141" x1="283.41" y1="180.48" x2="302.6" y2="180.48" gradientUnits="userSpaceOnUse">
      <stop offset="0" stop-color="#6c9370"/>
      <stop offset="1" stop-color="#a7bea9"/>
    </linearGradient>
    <linearGradient id="Degradado_sin_nombre_141-2" data-name="Degradado sin nombre 141" x1="29.61" y1="180.48" x2="48.8" y2="180.48" xlink:href="#Degradado_sin_nombre_141"/>
    <linearGradient id="Degradado_sin_nombre_141-3" data-name="Degradado sin nombre 141" x1="332.82" y1="152.07" x2="358.11" y2="152.07" xlink:href="#Degradado_sin_nombre_141"/>
    <linearGradient id="Degradado_sin_nombre_141-4" data-name="Degradado sin nombre 141" x1="260.86" y1="180.48" x2="325.14" y2="180.48" xlink:href="#Degradado_sin_nombre_141"/>
    <linearGradient id="Degradado_sin_nombre_141-5" data-name="Degradado sin nombre 141" x1="7.06" y1="180.48" x2="71.34" y2="180.48" xlink:href="#Degradado_sin_nombre_141"/>
    <linearGradient id="Degradado_sin_nombre_141-6" data-name="Degradado sin nombre 141" x1=".56" y1="161.67" x2="27.66" y2="161.67" xlink:href="#Degradado_sin_nombre_141"/>
    <linearGradient id="Degradado_sin_nombre_141-7" data-name="Degradado sin nombre 141" x1="50.74" y1="102.8" x2="366.3" y2="102.8" xlink:href="#Degradado_sin_nombre_141"/>
    <linearGradient id="Degradado_sin_nombre_141-8" data-name="Degradado sin nombre 141" x1="0" y1="71.53" x2="310.43" y2="71.53" xlink:href="#Degradado_sin_nombre_141"/>
  </defs>
  <g id="Layer_1" data-name="Layer 1">
    <g>
      <g>
        <path class="cls-2" d="M293,170.88c-4.7,0-8.61,3.39-9.43,7.85-.1.57-.17,1.14-.17,1.74,0,2.79,1.2,5.3,3.11,7.06,1.71,1.57,3.98,2.54,6.49,2.54s4.78-.96,6.48-2.54c1.91-1.75,3.11-4.26,3.11-7.06,0-.6-.06-1.17-.17-1.74-.82-4.46-4.72-7.85-9.43-7.85Z"/>
        <path class="cls-1" d="M47.08,175.01c-1.73-2.49-4.61-4.12-7.87-4.12s-6.14,1.63-7.87,4.12c-.76,1.1-1.31,2.36-1.56,3.73-.1.57-.16,1.14-.16,1.74,0,2.79,1.2,5.3,3.11,7.06,1.71,1.57,3.98,2.54,6.49,2.54s4.77-.96,6.48-2.54c1.91-1.75,3.11-4.26,3.11-7.06,0-.6-.06-1.17-.17-1.74-.25-1.37-.79-2.63-1.55-3.73Z"/>
        <path class="cls-3" d="M332.93,144.63c-.14,5.02-.14,9.89,0,14.91,8.31.14,16.77.14,25.09-.14.14-4.87.14-9.75-.15-14.76-8.31-.15-16.63-.15-24.94,0Z"/>
        <path class="cls-5" d="M293,148.34c-17.75,0-32.14,14.39-32.14,32.14s14.39,32.14,32.14,32.14,32.14-14.39,32.14-32.14-14.39-32.14-32.14-32.14ZM299.48,187.54c-1.71,1.57-3.98,2.54-6.48,2.54s-4.78-.96-6.49-2.54c-1.91-1.75-3.11-4.26-3.11-7.06,0-.6.06-1.17.17-1.74.82-4.46,4.73-7.85,9.43-7.85s8.61,3.39,9.43,7.85c.1.57.17,1.14.17,1.74,0,2.79-1.2,5.3-3.11,7.06Z"/>
        <path class="cls-4" d="M39.28,148.34h-.15c-15.85.04-29,11.55-31.59,26.67-.31,1.78-.47,3.6-.47,5.47,0,17.75,14.39,32.14,32.14,32.14s32.14-14.39,32.14-32.14c0-1.87-.17-3.69-.47-5.47-2.59-15.12-15.74-26.63-31.59-26.67ZM45.69,187.54c-1.71,1.57-3.98,2.54-6.48,2.54s-4.78-.96-6.49-2.54c-1.91-1.75-3.11-4.26-3.11-7.06,0-.6.06-1.17.16-1.74.25-1.37.79-2.63,1.56-3.73,1.73-2.49,4.61-4.12,7.87-4.12s6.14,1.63,7.87,4.12c.76,1.1,1.3,2.36,1.55,3.73.1.57.17,1.14.17,1.74,0,2.79-1.21,5.3-3.11,7.06Z"/>
        <path class="cls-7" d="M27.66,148.34H.56v26.67h4.95c.02-.11.03-.23.05-.34,2.13-12.43,10.78-22.28,22.09-26.33Z"/>
        <path class="cls-8" d="M359.57,158.32c-.13-14.67.27-29.2-.27-43.88-4.68-2.14-9.4-4.29-14.12-6.49-3.29-1.53-6.57-3.08-9.83-4.68-.44-.17-.84-.37-1.23-.58-6.67-3.58-6.46-12.58-9-18.94-2.63-10.79-6.98-21.28-9.62-32.05-1.67-6.83-2.66-13.77-2.09-20.97-19.18-.27-38.23-.14-57.28,0-.06,0-.12,0-.19,0v.03l-.1-.08v23.61l.1.08c-.06,31.31-.32,62.65,0,93.96H50.74c11.32,4.05,19.96,13.9,22.09,26.33.02.11.03.23.05.34h183.46c4.71-14.94,16.42-29.34,33.24-30.28,18.57-2.69,35.8,11.57,39.83,29.34,12.25.14,24.5.14,36.74.14,0-5.12.13-10.36.13-15.48-2.29-.14-4.44-.27-6.73-.4ZM281.24,100.72c-.13-14.26-.4-28.53.14-42.8,9.55,0,19.24-.14,28.8.27,3.77,14.13,8.34,28.13,12.11,42.39-13.73.27-27.32.14-41.05.14ZM358.02,159.39c-8.32.29-16.78.29-25.09.14-.14-5.02-.14-9.89,0-14.91,8.31-.15,16.63-.15,24.94,0,.29,5.02.29,9.89.15,14.76Z"/>
      </g>
      <polygon class="cls-6" points="0 0 0 143.06 250.35 143.06 250.35 24 310.43 24 310.43 0 0 0"/>
    </g>
  </g>
</svg>